<svg width="35" height="35" viewBox="0 0 35 35" fill="none" xmlns="http://www.w3.org/2000/svg">
<path d="M10 1H25C29.9706 1 34 5.02944 34 10V25C34 29.9706 29.9706 34 25 34H10C5.02944 34 1 29.9706 1 25V10C1 5.02944 5.02944 1 10 1Z" stroke="black" stroke-width="2"/>
<path d="M23.7189 25.2668C24.325 25.2663 24.9062 25.0262 25.3347 24.5993C25.7633 24.1725 26.0044 23.5937 26.0049 22.99V11.6079C26.0044 11.0042 25.7633 10.4254 25.3347 9.9985C24.9062 9.57163 24.325 9.33158 23.7189 9.33105H12.2909C11.6848 9.33158 11.1036 9.57163 10.675 9.9985C10.2464 10.4254 10.0054 11.0042 10.0049 11.6079V22.99C10.0054 23.5937 10.2464 24.1725 10.675 24.5993C11.1036 25.0262 11.6848 25.2663 12.2909 25.2668H23.7189ZM15.7189 21.2829C15.4916 21.2829 15.2736 21.1929 15.1129 21.0329C14.9522 20.8728 14.8619 20.6557 14.8619 20.4293C14.8619 20.2029 14.9522 19.9858 15.1129 19.8257C15.2736 19.6657 15.4916 19.5757 15.7189 19.5757H19.0799L14.2549 14.7731C14.0943 14.6132 14.0041 14.3962 14.0041 14.17C14.0041 13.9438 14.0943 13.7269 14.2549 13.567C14.4155 13.407 14.6333 13.3172 14.8604 13.3172C15.0875 13.3172 15.3053 13.407 15.4659 13.567L20.2869 18.3686V14.7383C20.2869 14.5119 20.3772 14.2948 20.5379 14.1347C20.6986 13.9746 20.9166 13.8847 21.1439 13.8847C21.3712 13.8847 21.5892 13.9746 21.7499 14.1347C21.9106 14.2948 22.0009 14.5119 22.0009 14.7383V20.4293C22.0011 20.5415 21.9792 20.6526 21.9362 20.7563C21.8932 20.8599 21.8301 20.9541 21.7505 21.0334C21.6708 21.1128 21.5763 21.1756 21.4722 21.2184C21.3681 21.2612 21.2565 21.2831 21.1439 21.2829H15.7189Z" fill="black"/>
</svg>
