<svg width="35" height="35" viewBox="0 0 35 35" fill="none" xmlns="http://www.w3.org/2000/svg">
<path d="M10 1H25C29.9706 1 34 5.02944 34 10V25C34 29.9706 29.9706 34 25 34H10C5.02944 34 1 29.9706 1 25V10C1 5.02944 5.02944 1 10 1Z" fill="white" stroke="black" stroke-width="2"/>
<path d="M25.0049 24.6841H11.0049V23.1423H25.0049V24.6841ZM21.8939 21.5996H14.1159V20.0569H21.8939V21.5996ZM25.0049 18.5152H11.0049V16.9725H25.0049V18.5152ZM21.8939 15.4308H14.1159V13.8881H21.8939V15.4308ZM25.0049 12.3454H11.0049V10.8037H25.0049V12.3454Z" fill="black"/>
</svg>
