<svg width="35" height="35" viewBox="0 0 35 35" fill="none" xmlns="http://www.w3.org/2000/svg">
<path d="M25 34H10C5.03738 34 1 29.9626 1 25V10C1 5.03738 5.03738 1 10 1H25C29.9626 1 34 5.03738 34 10V25C34 29.9626 29.9626 34 25 34Z" fill="white"/>
<path d="M10 2C5.58879 2 2 5.58879 2 10V25C2 29.4112 5.58879 33 10 33H25C29.4112 33 33 29.4112 33 25V10C33 5.58879 29.4112 2 25 2H10ZM10 0H25C30.5229 0 35 4.47715 35 10V25C35 30.5229 30.5229 35 25 35H10C4.47715 35 0 30.5229 0 25V10C0 4.47715 4.47715 0 10 0Z" fill="black"/>
<path d="M20.04 24.4999H13V10.4999H19.249C19.7764 10.4922 20.3 10.5905 20.7888 10.7888C21.2775 10.9871 21.7216 11.2814 22.0945 11.6544C22.4675 12.0274 22.7619 12.4714 22.9602 12.9602C23.1585 13.4489 23.2567 13.9725 23.249 14.4999C23.2102 15.0611 23.0409 15.6054 22.7547 16.0896C22.4684 16.5738 22.073 16.9845 21.6 17.2889C22.2493 17.5918 22.7974 18.0755 23.1786 18.6822C23.5598 19.2888 23.7578 19.9925 23.749 20.7089C23.7559 21.7076 23.3715 22.6693 22.678 23.3879C22.3361 23.7417 21.9261 24.0226 21.4727 24.2138C21.0194 24.4049 20.532 24.5022 20.04 24.4999ZM16 18.9999V21.9999H19.5C19.8978 21.9999 20.2794 21.8419 20.5607 21.5606C20.842 21.2793 21 20.8978 21 20.4999C21 20.1021 20.842 19.7206 20.5607 19.4393C20.2794 19.158 19.8978 18.9999 19.5 18.9999H16ZM16 12.9999V15.9999H19C19.3978 15.9999 19.7794 15.8419 20.0607 15.5606C20.342 15.2793 20.5 14.8978 20.5 14.4999C20.5 14.1021 20.342 13.7206 20.0607 13.4393C19.7794 13.158 19.3978 12.9999 19 12.9999H16Z" fill="black"/>
</svg>
