<svg width="35" height="35" viewBox="0 0 35 35" fill="none" xmlns="http://www.w3.org/2000/svg">
<path d="M25 34H10C5.03738 34 1 29.9626 1 25V10C1 5.03738 5.03738 1 10 1H25C29.9626 1 34 5.03738 34 10V25C34 29.9626 29.9626 34 25 34Z" fill="white"/>
<path d="M10 2C5.58879 2 2 5.58879 2 10V25C2 29.4112 5.58879 33 10 33H25C29.4112 33 33 29.4112 33 25V10C33 5.58879 29.4112 2 25 2H10ZM10 0H25C30.5229 0 35 4.47715 35 10V25C35 30.5229 30.5229 35 25 35H10C4.47715 35 0 30.5229 0 25V10C0 4.47715 4.47715 0 10 0Z" fill="black"/>
<path d="M10.4 24.5C10.0302 24.4951 9.67698 24.346 9.41549 24.0845C9.154 23.823 9.00492 23.4698 9 23.1C9 22.7287 9.1475 22.3726 9.41005 22.1101C9.6726 21.8475 10.0287 21.7 10.4 21.7C10.7713 21.7 11.1274 21.8475 11.39 22.1101C11.6525 22.3726 11.8 22.7287 11.8 23.1C11.7951 23.4698 11.646 23.823 11.3845 24.0845C11.123 24.346 10.7698 24.4951 10.4 24.5ZM26.266 24.033H13.2V22.167H26.267L26.266 24.033ZM10.4 18.9C10.1231 18.9 9.85243 18.8179 9.6222 18.6641C9.39197 18.5102 9.21253 18.2916 9.10657 18.0358C9.00061 17.7799 8.97288 17.4984 9.0269 17.2269C9.08092 16.9553 9.21426 16.7058 9.41005 16.5101C9.60584 16.3143 9.8553 16.1809 10.1269 16.1269C10.3984 16.0729 10.6799 16.1006 10.9358 16.2066C11.1916 16.3125 11.4102 16.492 11.5641 16.7222C11.7179 16.9524 11.8 17.2231 11.8 17.5C11.8 17.8713 11.6525 18.2274 11.39 18.49C11.1274 18.7525 10.7713 18.9 10.4 18.9ZM26.266 18.433H13.2V16.566H26.267V18.432L26.266 18.433ZM10.4 13.3C10.1231 13.3 9.85243 13.2179 9.6222 13.0641C9.39197 12.9102 9.21253 12.6916 9.10657 12.4358C9.00061 12.1799 8.97288 11.8984 9.0269 11.6269C9.08092 11.3553 9.21426 11.1058 9.41005 10.9101C9.60584 10.7143 9.8553 10.5809 10.1269 10.5269C10.3984 10.4729 10.6799 10.5006 10.9358 10.6066C11.1916 10.7125 11.4102 10.892 11.5641 11.1222C11.7179 11.3524 11.8 11.6231 11.8 11.9C11.8 12.2713 11.6525 12.6274 11.39 12.89C11.1274 13.1525 10.7713 13.3 10.4 13.3ZM26.266 12.834H13.2V10.967H26.267V12.833L26.266 12.834Z" fill="black"/>
</svg>
