<svg width="35" height="35" viewBox="0 0 35 35" fill="none" xmlns="http://www.w3.org/2000/svg">
<path d="M25 34H10C5.03738 34 1 29.9626 1 25V10C1 5.03738 5.03738 1 10 1H25C29.9626 1 34 5.03738 34 10V25C34 29.9626 29.9626 34 25 34Z" fill="white"/>
<path d="M10 2C5.58879 2 2 5.58879 2 10V25C2 29.4112 5.58879 33 10 33H25C29.4112 33 33 29.4112 33 25V10C33 5.58879 29.4112 2 25 2H10ZM10 0H25C30.5229 0 35 4.47715 35 10V25C35 30.5229 30.5229 35 25 35H10C4.47715 35 0 30.5229 0 25V10C0 4.47715 4.47715 0 10 0Z" fill="black"/>
<path d="M22.444 29H12.666C12.0181 28.9992 11.3969 28.7415 10.9387 28.2833C10.4805 27.8251 10.2228 27.2039 10.222 26.556V11.888H24.888V26.556C24.8872 27.2039 24.6295 27.8251 24.1713 28.2833C23.7131 28.7415 23.0919 28.9992 22.444 29ZM26.112 10.666H9V8.222H13.278L14.5 7H20.612L21.834 8.222H26.112V10.666Z" fill="black"/>
</svg>
