<svg width="35" height="35" viewBox="0 0 35 35" fill="none" xmlns="http://www.w3.org/2000/svg">
<path d="M10 1H25C29.9706 1 34 5.02944 34 10V25C34 29.9706 29.9706 34 25 34H10C5.02944 34 1 29.9706 1 25V10C1 5.02944 5.02944 1 10 1Z" stroke="black" stroke-width="2"/>
<path d="M24.5249 10.9611L24.3479 10.7886C23.7635 10.1085 23.0425 9.55678 22.2309 9.16856C21.3793 8.87345 20.4752 8.7573 19.5759 8.8275H16.9389C14.4619 8.8275 12.8249 8.8275 11.5089 10.1352C10.1929 11.443 10.1899 13.062 10.1899 15.5188V15.7974C10.1854 15.9466 10.2112 16.0952 10.2657 16.2344C10.3201 16.3735 10.4023 16.5004 10.5071 16.6075C10.612 16.7146 10.7375 16.7998 10.8761 16.8579C11.0148 16.9161 11.1638 16.9461 11.3144 16.9461C11.4649 16.9461 11.614 16.9161 11.7526 16.8579C11.8913 16.7998 12.0168 16.7146 12.1217 16.6075C12.2265 16.5004 12.3086 16.3735 12.3631 16.2344C12.4176 16.0952 12.4434 15.9466 12.4389 15.7974V15.5188C12.4389 13.2742 12.4639 12.3402 13.0969 11.7106C13.7299 11.0811 14.6739 11.0583 16.9379 11.0583H19.5729C20.1764 11.0013 20.7853 11.0592 21.3669 11.2288C21.8996 11.5167 22.372 11.9026 22.7589 12.366L22.9359 12.5415C23.4023 12.9248 23.7915 13.392 24.0829 13.9186C24.2528 14.4944 24.3111 15.0969 24.2549 15.6943V19.9794C24.2549 22.224 24.2299 23.158 23.5969 23.7875C22.9639 24.4171 22.0199 24.4399 19.7559 24.4399H19.4749C19.1825 24.4486 18.9049 24.5698 18.7012 24.7779C18.4974 24.9861 18.3834 25.2647 18.3834 25.5548C18.3834 25.8449 18.4974 26.1235 18.7012 26.3317C18.9049 26.5398 19.1825 26.661 19.4749 26.6697H19.7559C22.2329 26.6697 23.8699 26.6697 25.1859 25.362C26.5019 24.0542 26.5049 22.4322 26.5049 19.9784V15.6953C26.5759 14.8041 26.4591 13.908 26.1619 13.064C25.7697 12.2588 25.2133 11.5431 24.5279 10.9621L24.5249 10.9611Z" fill="black"/>
<path d="M12.7239 18.5853C12.5761 18.5852 12.4298 18.6139 12.2932 18.6699C12.1567 18.7259 12.0326 18.8081 11.9281 18.9117C11.8236 19.0153 11.7407 19.1383 11.6843 19.2737C11.6278 19.4091 11.5988 19.5542 11.5989 19.7007V21.4179L9.99289 20.8745C9.71057 20.7792 9.40162 20.799 9.134 20.9295C8.86639 21.0601 8.66203 21.2906 8.56589 21.5705C8.46975 21.8504 8.4897 22.1568 8.62135 22.4221C8.753 22.6874 8.98557 22.89 9.26789 22.9853L10.8879 23.5346L9.85889 24.881C9.76992 24.9978 9.70502 25.1308 9.6679 25.2725C9.63078 25.4141 9.62217 25.5616 9.64255 25.7066C9.66293 25.8516 9.71191 25.9911 9.78669 26.1173C9.86148 26.2435 9.96059 26.3538 10.0784 26.4421C10.1962 26.5303 10.3304 26.5946 10.4732 26.6314C10.6161 26.6682 10.7649 26.6768 10.9111 26.6565C11.0573 26.6363 11.1981 26.5878 11.3253 26.5136C11.4526 26.4395 11.5639 26.3412 11.6529 26.2244L12.7239 24.8225L13.7949 26.2244C13.9746 26.4603 14.2414 26.6157 14.5367 26.6565C14.832 26.6974 15.1315 26.6202 15.3694 26.4421C15.6073 26.2639 15.7641 25.9994 15.8052 25.7066C15.8464 25.4138 15.7686 25.1169 15.5889 24.881L14.5599 23.5346L16.1799 22.9853C16.4622 22.89 16.6948 22.6874 16.8264 22.4221C16.9581 22.1568 16.978 21.8504 16.8819 21.5705C16.7857 21.2906 16.5814 21.0601 16.3138 20.9295C16.0462 20.799 15.7372 20.7792 15.4549 20.8745L13.8489 21.4179V19.7007C13.849 19.5542 13.82 19.4091 13.7635 19.2737C13.707 19.1383 13.6242 19.0153 13.5197 18.9117C13.4152 18.8081 13.2911 18.7259 13.1546 18.6699C13.018 18.6139 12.8717 18.5852 12.7239 18.5853Z" fill="black"/>
</svg>
