<svg width="35" height="35" viewBox="0 0 35 35" fill="none" xmlns="http://www.w3.org/2000/svg">
<path d="M27.7083 34H7.29167C3.82243 34 1 31.1776 1 27.7083V7.29167C1 3.82243 3.82243 1 7.29167 1H27.7083C31.1776 1 34 3.82243 34 7.29167V27.7083C34 31.1776 31.1776 34 27.7083 34Z" fill="white"/>
<path d="M7.29167 2C4.37383 2 2 4.37383 2 7.29167V27.7083C2 30.6262 4.37383 33 7.29167 33H27.7083C30.6262 33 33 30.6262 33 27.7083V7.29167C33 4.37383 30.6262 2 27.7083 2H7.29167ZM7.29167 0H27.7083C31.7354 0 35 3.26459 35 7.29167V27.7083C35 31.7354 31.7354 35 27.7083 35H7.29167C3.26459 35 0 31.7354 0 27.7083V7.29167C0 3.26459 3.26459 0 7.29167 0Z" fill="black"/>
<path d="M15.5 10.5V13.5H17.71L14.29 21.5H11.5V24.5H19.5V21.5H17.29L20.71 13.5H23.5V10.5H15.5Z" fill="black"/>
</svg>
