<svg width="35" height="35" viewBox="0 0 35 35" fill="none" xmlns="http://www.w3.org/2000/svg">
<path d="M25 0H10C4.47715 0 0 4.47715 0 10V25C0 30.5228 4.47715 35 10 35H25C30.5228 35 35 30.5228 35 25V10C35 4.47715 30.5228 0 25 0Z" fill="white"/>
<path d="M25 1H10C5.02944 1 1 5.02944 1 10V25C1 29.9706 5.02944 34 10 34H25C29.9706 34 34 29.9706 34 25V10C34 5.02944 29.9706 1 25 1Z" stroke="black" stroke-width="2"/>
<path d="M12.125 24.5H9.5V23.625H11.25V23.187H10.375V22.312H11.25V21.874H9.5V21H12.125V24.5ZM26.125 23.625H13.875V21.875H26.125V23.625ZM12.125 19.25H9.5V18.462L11.075 16.625H9.5V15.75H12.125V16.537L10.55 18.375H12.125V19.249V19.25ZM26.125 18.375H13.875V16.625H26.125V18.375ZM11.25 14H10.375V11.375H9.5V10.5H11.25V14ZM26.125 13.125H13.875V11.375H26.125V13.125Z" fill="black"/>
</svg>
