<svg width="35" height="35" viewBox="0 0 35 35" fill="none" xmlns="http://www.w3.org/2000/svg">
<path d="M10 1H25C29.9706 1 34 5.02944 34 10V25C34 29.9706 29.9706 34 25 34H10C5.02944 34 1 29.9706 1 25V10C1 5.02944 5.02944 1 10 1Z" fill="white" stroke="black" stroke-width="2"/>
<path fill-rule="evenodd" clip-rule="evenodd" d="M8.5 18.339C8.4997 16.5462 9.04467 14.7949 10.0638 13.3139C11.0828 11.8329 12.5287 10.6909 14.2125 10.0372C15.8962 9.38343 17.7397 9.24824 19.5022 9.64929C21.2647 10.0503 22.8642 10.969 24.092 12.2852V10.6127C24.092 10.2961 24.2188 9.99244 24.4446 9.76857C24.6704 9.54471 24.9767 9.41895 25.296 9.41895C25.6153 9.41895 25.9216 9.54471 26.1474 9.76857C26.3732 9.99244 26.5 10.2961 26.5 10.6127V15.3647C26.5 15.6802 26.3736 15.9828 26.1485 16.206C25.9235 16.4291 25.6183 16.5544 25.3 16.5544H20.5C20.3419 16.5544 20.1853 16.5236 20.0392 16.4636C19.8932 16.4036 19.7604 16.3156 19.6486 16.2048C19.5368 16.094 19.4482 15.9624 19.3876 15.8175C19.3271 15.6727 19.296 15.5175 19.296 15.3607C19.296 15.204 19.3271 15.0487 19.3876 14.9039C19.4482 14.7591 19.5368 14.6275 19.6486 14.5166C19.7604 14.4058 19.8932 14.3179 20.0392 14.2579C20.1853 14.1979 20.3419 14.167 20.5 14.167H22.583C21.8743 13.318 20.9609 12.6603 19.9274 12.2547C18.8939 11.8492 17.7739 11.7089 16.6711 11.8471C15.5684 11.9852 14.5187 12.3972 13.6194 13.0449C12.7202 13.6926 12.0005 14.5549 11.527 15.552C11.0536 16.549 10.8418 17.6484 10.9114 18.7483C10.9809 19.8481 11.3294 20.9127 11.9247 21.8434C12.5199 22.774 13.3426 23.5406 14.3164 24.0719C15.2902 24.6032 16.3835 24.8821 17.495 24.8826C17.8143 24.8826 18.1206 25.0084 18.3464 25.2323C18.5722 25.4561 18.699 25.7598 18.699 26.0763C18.699 26.3929 18.5722 26.6966 18.3464 26.9204C18.1206 27.1443 17.8143 27.2701 17.495 27.2701H17.471C15.0871 27.2643 12.8031 26.3203 11.1209 24.6456C9.43871 22.9709 8.49602 20.7026 8.5 18.339Z" fill="black"/>
</svg>
