<svg width="35" height="35" viewBox="0 0 35 35" fill="none" xmlns="http://www.w3.org/2000/svg">
<path d="M25 34H10C5.03738 34 1 29.9626 1 25V10C1 5.03738 5.03738 1 10 1H25C29.9626 1 34 5.03738 34 10V25C34 29.9626 29.9626 34 25 34Z" fill="white"/>
<path d="M10 2C5.58879 2 2 5.58879 2 10V25C2 29.4112 5.58879 33 10 33H25C29.4112 33 33 29.4112 33 25V10C33 5.58879 29.4112 2 25 2H10ZM10 0H25C30.5229 0 35 4.47715 35 10V25C35 30.5229 30.5229 35 25 35H10C4.47715 35 0 30.5229 0 25V10C0 4.47715 4.47715 0 10 0Z" fill="black"/>
<path d="M18.966 24.5H16.166V13.3H11.5V10.5H23.633V13.3H18.966V24.5ZM29.233 16.1H27.833V11.9H26.433V10.5H29.233V16.1Z" fill="black"/>
</svg>
