<svg width="35" height="35" viewBox="0 0 35 35" fill="none" xmlns="http://www.w3.org/2000/svg">
<path d="M25 34H10C5.03738 34 1 29.9626 1 25V10C1 5.03738 5.03738 1 10 1H25C29.9626 1 34 5.03738 34 10V25C34 29.9626 29.9626 34 25 34Z" fill="white"/>
<path d="M10 2C5.58879 2 2 5.58879 2 10V25C2 29.4112 5.58879 33 10 33H25C29.4112 33 33 29.4112 33 25V10C33 5.58879 29.4112 2 25 2H10ZM10 0H25C30.5229 0 35 4.47715 35 10V25C35 30.5229 30.5229 35 25 35H10C4.47715 35 0 30.5229 0 25V10C0 4.47715 4.47715 0 10 0Z" fill="black"/>
<path d="M25 27H22V16H27V25C27 25.5304 26.7893 26.0391 26.4142 26.4142C26.0391 26.7893 25.5304 27 25 27ZM20 27H15V16.02H20V27ZM13 27H10C9.46957 27 8.96086 26.7893 8.58579 26.4142C8.21071 26.0391 8 25.5304 8 25V16H13V27ZM27 14H8V11C8 10.4696 8.21071 9.96086 8.58579 9.58579C8.96086 9.21071 9.46957 9 10 9H25C25.5304 9 26.0391 9.21071 26.4142 9.58579C26.7893 9.96086 27 10.4696 27 11V14Z" fill="black"/>
</svg>
