<svg width="20" height="20" viewBox="0 0 20 20" fill="none" xmlns="http://www.w3.org/2000/svg">
<path d="M18.125 10C18.125 8.39303 17.6485 6.82215 16.7557 5.486C15.8629 4.14985 14.594 3.10845 13.1093 2.49348C11.6247 1.87852 9.99099 1.71762 8.41489 2.03112C6.8388 2.34463 5.39106 3.11846 4.25476 4.25476C3.11846 5.39106 2.34462 6.8388 2.03112 8.4149C1.71761 9.99099 1.87852 11.6247 2.49348 13.1093C3.10844 14.594 4.14984 15.8629 5.48599 16.7557C6.82214 17.6485 8.39303 18.125 10 18.125C12.1549 18.125 14.2215 17.269 15.7452 15.7452C17.269 14.2215 18.125 12.1549 18.125 10ZM0 10C0 8.02219 0.58649 6.08879 1.6853 4.4443C2.78412 2.79981 4.3459 1.51809 6.17317 0.761209C8.00043 0.00433284 10.0111 -0.193701 11.9509 0.192152C13.8907 0.578004 15.6725 1.53041 17.0711 2.92894C18.4696 4.32746 19.422 6.10929 19.8079 8.0491C20.1937 9.98891 19.9957 11.9996 19.2388 13.8268C18.4819 15.6541 17.2002 17.2159 15.5557 18.3147C13.9112 19.4135 11.9778 20 10 20C7.34784 20 4.8043 18.9464 2.92893 17.0711C1.05357 15.1957 0 12.6522 0 10ZM6.633 6.457C6.78471 6.0303 7.06492 5.6611 7.43507 5.40019C7.80522 5.13927 8.24713 4.99947 8.7 5H10.977C11.5197 5.00173 12.0466 5.18233 12.4762 5.51385C12.9059 5.84536 13.2142 6.30928 13.3535 6.83376C13.4928 7.35823 13.4553 7.91401 13.2467 8.415C13.0382 8.916 12.6703 9.33426 12.2 9.605L10.938 10.328C10.9282 10.5715 10.8241 10.8016 10.6477 10.9696C10.4713 11.1377 10.2364 11.2305 9.99275 11.2284C9.7491 11.2263 9.51583 11.1295 9.3423 10.9585C9.16877 10.7874 9.0686 10.5556 9.063 10.312V9.785C9.06298 9.61978 9.10674 9.45751 9.18983 9.3147C9.27291 9.17189 9.39236 9.05364 9.536 8.972L11.266 7.98C11.3779 7.91494 11.4652 7.81491 11.5147 7.69531C11.5641 7.57571 11.5728 7.44318 11.5395 7.31813C11.5062 7.19309 11.4327 7.08246 11.3303 7.00329C11.228 6.92412 11.1024 6.8808 10.973 6.88H8.7C8.63566 6.87958 8.5728 6.89932 8.52025 6.93644C8.4677 6.97357 8.4281 7.02622 8.407 7.087L8.391 7.134C8.30812 7.36819 8.1356 7.55986 7.9114 7.66685C7.6872 7.77384 7.42969 7.78738 7.1955 7.7045C6.96131 7.62162 6.76964 7.44911 6.66265 7.22491C6.55566 7.00071 6.54212 6.74319 6.625 6.509L6.641 6.462L6.633 6.457ZM8.75 13.75C8.75 13.5028 8.82331 13.2611 8.96066 13.0555C9.09801 12.85 9.29324 12.6898 9.52165 12.5952C9.75005 12.5005 10.0014 12.4758 10.2439 12.524C10.4863 12.5723 10.7091 12.6913 10.8839 12.8661C11.0587 13.0409 11.1778 13.2637 11.226 13.5061C11.2742 13.7486 11.2495 14 11.1548 14.2284C11.0602 14.4568 10.9 14.652 10.6945 14.7893C10.4889 14.9267 10.2472 15 10 15C9.66848 15 9.35054 14.8683 9.11612 14.6339C8.8817 14.3995 8.75 14.0815 8.75 13.75Z" fill="#707070"/>
</svg>
