<svg width="35" height="35" viewBox="0 0 35 35" fill="none" xmlns="http://www.w3.org/2000/svg">
<path d="M25 34H10C5.03738 34 1 29.9626 1 25V10C1 5.03738 5.03738 1 10 1H25C29.9626 1 34 5.03738 34 10V25C34 29.9626 29.9626 34 25 34Z" fill="white"/>
<path d="M10 2C5.58879 2 2 5.58879 2 10V25C2 29.4112 5.58879 33 10 33H25C29.4112 33 33 29.4112 33 25V10C33 5.58879 29.4112 2 25 2H10ZM10 0H25C30.5229 0 35 4.47715 35 10V25C35 30.5229 30.5229 35 25 35H10C4.47715 35 0 30.5229 0 25V10C0 4.47715 4.47715 0 10 0Z" fill="black"/>
<path d="M22.9447 24.5H12.0557V22.945H22.9447V24.5ZM17.5007 21.389C16.2633 21.3877 15.077 20.8956 14.2021 20.0206C13.3271 19.1457 12.835 17.9594 12.8337 16.722V10.5H14.7777V16.722C14.7777 17.4441 15.0645 18.1365 15.5751 18.6471C16.0856 19.1577 16.7781 19.4445 17.5002 19.4445C18.2222 19.4445 18.9147 19.1577 19.4253 18.6471C19.9358 18.1365 20.2227 17.4441 20.2227 16.722V10.5H22.1667V16.722C22.1653 17.9592 21.6734 19.1453 20.7986 20.0203C19.9239 20.8952 18.7379 21.3874 17.5007 21.389Z" fill="black"/>
</svg>
