<svg width="35" height="35" viewBox="0 0 35 35" fill="none" xmlns="http://www.w3.org/2000/svg">
<path d="M10 1H25C29.9706 1 34 5.02944 34 10V25C34 29.9706 29.9706 34 25 34H10C5.02944 34 1 29.9706 1 25V10C1 5.02944 5.02944 1 10 1Z" fill="white" stroke="black" stroke-width="2"/>
<path fill-rule="evenodd" clip-rule="evenodd" d="M26.5 18.339C26.5003 16.5462 25.9553 14.7949 24.9362 13.3139C23.9172 11.8329 22.4713 10.6909 20.7875 10.0372C19.1038 9.38343 17.2603 9.24824 15.4978 9.64929C13.7353 10.0503 12.1358 10.969 10.908 12.2852V10.6127C10.908 10.2961 10.7812 9.99244 10.5554 9.76857C10.3296 9.54471 10.0233 9.41895 9.704 9.41895C9.38468 9.41895 9.07844 9.54471 8.85264 9.76857C8.62685 9.99244 8.5 10.2961 8.5 10.6127V15.3647C8.5 15.6802 8.62643 15.9828 8.85147 16.206C9.07652 16.4291 9.38174 16.5544 9.7 16.5544H14.5C14.6581 16.5544 14.8147 16.5236 14.9608 16.4636C15.1068 16.4036 15.2396 16.3156 15.3514 16.2048C15.4632 16.094 15.5518 15.9624 15.6124 15.8175C15.6729 15.6727 15.704 15.5175 15.704 15.3607C15.704 15.204 15.6729 15.0487 15.6124 14.9039C15.5518 14.7591 15.4632 14.6275 15.3514 14.5166C15.2396 14.4058 15.1068 14.3179 14.9608 14.2579C14.8147 14.1979 14.6581 14.167 14.5 14.167H12.417C13.1257 13.318 14.0391 12.6603 15.0726 12.2547C16.1061 11.8492 17.2261 11.7089 18.3289 11.8471C19.4316 11.9852 20.4813 12.3972 21.3806 13.0449C22.2798 13.6926 22.9995 14.5549 23.473 15.552C23.9464 16.549 24.1582 17.6484 24.0886 18.7483C24.0191 19.8481 23.6706 20.9127 23.0753 21.8434C22.4801 22.774 21.6574 23.5406 20.6836 24.0719C19.7098 24.6032 18.6165 24.8821 17.505 24.8826C17.1857 24.8826 16.8794 25.0084 16.6536 25.2323C16.4278 25.4561 16.301 25.7598 16.301 26.0763C16.301 26.3929 16.4278 26.6966 16.6536 26.9204C16.8794 27.1443 17.1857 27.2701 17.505 27.2701H17.529C19.9129 27.2643 22.1969 26.3203 23.8791 24.6456C25.5613 22.9709 26.504 20.7026 26.5 18.339Z" fill="black"/>
</svg>
