<svg width="20" height="16" viewBox="0 0 20 16" fill="currentColor" xmlns="http://www.w3.org/2000/svg">
<path d="M19.3002 2.3C19.3002 1.90215 19.1422 1.5206 18.8609 1.23935C18.5796 0.958003 18.1981 0.800003 17.8002 0.800003H8.20022C7.80237 0.800003 7.42083 0.958011 7.13958 1.23935C6.85822 1.5206 6.70022 1.90215 6.70022 2.3V3.5C6.70022 3.82158 6.87181 4.11865 7.15022 4.2794C7.42865 4.44024 7.7718 4.44024 8.05022 4.2794C8.32865 4.11866 8.50023 3.8216 8.50023 3.5V2.6H12.1002V13.4H10.6002C10.2786 13.4 9.98158 13.5716 9.82082 13.85C9.65998 14.1284 9.65998 14.4716 9.82082 14.75C9.98157 15.0284 10.2786 15.2 10.6002 15.2H15.4002C15.7218 15.2 16.0189 15.0284 16.1796 14.75C16.3405 14.4716 16.3405 14.1284 16.1796 13.85C16.0189 13.5716 15.7218 13.4 15.4002 13.4H13.9002V2.6H17.5002V3.5C17.5002 3.82158 17.6718 4.11865 17.9502 4.2794C18.2287 4.44024 18.5718 4.44024 18.8502 4.2794C19.1287 4.11866 19.3002 3.8216 19.3002 3.5V2.3Z" fill="currentColor"/>
<path d="M7.60023 7.4H1.60023C1.27865 7.4 0.981575 7.57158 0.820825 7.85C0.659985 8.12843 0.659985 8.47158 0.820825 8.75C0.981568 9.02843 1.27863 9.2 1.60023 9.2H3.70023V14.3C3.70023 14.6216 3.87181 14.9187 4.15023 15.0794C4.42865 15.2402 4.7718 15.2402 5.05023 15.0794C5.32865 14.9187 5.50023 14.6216 5.50023 14.3V9.2H7.60023C7.9218 9.2 8.21888 9.02842 8.37963 8.75C8.54047 8.47158 8.54047 8.12843 8.37963 7.85C8.21888 7.57158 7.92183 7.4 7.60023 7.4Z" fill="currentColor"/>
</svg>
