<?xml version="1.0" encoding="UTF-8"?>
<svg width="1200pt" height="1200pt" version="1.1" viewBox="0 0 1200 1200" xmlns="http://www.w3.org/2000/svg">
 <path d="m899.64 307.8-7.5586-7.4414c-31.922-32.039-55.078-55.078-90.359-69.719s-68.039-14.641-113.28-14.641h-112.44c-105.72 0-175.56 0-231.72 56.281-56.281 56.281-56.281 126-56.281 231.72v12c0 26.52 21.48 48 48 48s48-21.48 48-48v-12c0-96.602 1.0781-136.8 28.078-163.92 27-27 67.32-28.078 163.92-28.078h112.44c40.801 0 59.52 0.23828 76.559 7.3203 17.039 7.0781 30.359 20.039 59.281 48.961l7.5586 7.5586c28.922 28.922 41.879 42.359 48.961 59.281 6.9609 16.922 7.3203 35.641 7.3203 76.441v184.44c0 96.602-1.0781 136.8-28.078 163.92-27 27-67.32 28.078-163.92 28.078h-12c-26.52 0-48 21.48-48 48 0 26.52 21.48 48 48 48h12c105.72 0 175.56 0 231.72-56.281 56.281-56.281 56.281-126.12 56.281-231.72v-184.44c0-45.238 0-78-14.641-113.28s-37.68-58.441-69.719-90.48z"/>
 <path d="m396 636c-26.52 0-48 21.48-48 48v73.922l-68.52-23.398c-25.078-8.6406-52.441 4.8008-60.961 29.879s4.8008 52.32 30 60.961l69.121 23.641-43.922 57.961c-15.961 21.121-11.879 51.238 9.3594 67.199 8.6406 6.6016 18.84 9.7188 28.922 9.7188 14.52 0 28.922-6.6016 38.281-19.078l45.719-60.359 45.719 60.359c9.4805 12.48 23.762 19.078 38.281 19.078 10.078 0 20.281-3.1211 28.922-9.7188 21.121-15.961 25.32-46.078 9.3594-67.199l-43.922-57.961 69.121-23.641c25.078-8.5195 38.52-35.879 30-60.961-8.5195-25.078-35.762-38.52-60.961-29.879l-68.52 23.398v-73.922c0-26.52-21.48-48-48-48z"/>
</svg>
