<?xml version="1.0" encoding="UTF-8"?>
<svg xmlns="http://www.w3.org/2000/svg" xmlns:xlink="http://www.w3.org/1999/xlink" version="1.1" viewBox="0 0 1080 1080">
  <defs>
    <style>
      .cls-1 {
        fill: none;
      }

      .cls-2 {
        clip-path: url(#clippath);
      }
    </style>
    <clipPath id="clippath">
      <rect class="cls-1" x="7.5" y="49.6" width="1064.2" height="981.6"/>
    </clipPath>
  </defs>
  <!-- Generator: Adobe Illustrator 28.6.0, SVG Export Plug-In . SVG Version: 1.2.0 Build 709)  -->
  <g>
    <g id="Layer_1">
      <g class="cls-2">
        <g id="Icon_-_More_Filters">
          <path id="Path_150" d="M69,239.7h192.6c34,62.3,112,85.3,174.3,51.3,62.3-34,85.3-112,51.3-174.3-34-62.3-112-85.3-174.3-51.3-21.7,11.8-39.5,29.6-51.3,51.3H69c-34,0-61.5,27.5-61.5,61.5s27.5,61.5,61.5,61.5Z"/>
          <path id="Path_151" d="M1010.2,239.6c34,0,61.6-27.4,61.6-61.4,0-34-27.4-61.6-61.4-61.6h-441.5c17.3,39.2,17.3,83.8,0,123h441.3Z"/>
          <path id="Path_152" d="M679.1,669c71,0,128.5-57.5,128.6-128.4,0-71-57.5-128.5-128.4-128.6-47.1,0-90.4,25.7-112.9,67H69c-34,0-61.5,27.6-61.5,61.5s27.6,61.5,61.5,61.5h497.2c22.5,41.3,65.8,66.9,112.8,66.9h.1Z"/>
          <path id="Path_153" d="M1010.2,479h-136.7c17.3,39.2,17.3,83.9,0,123.1h136.7c34,0,61.5-27.6,61.5-61.5s-27.6-61.5-61.5-61.5Z"/>
          <path id="Path_154" d="M374.3,774.5c-46.9,0-90.1,25.4-112.8,66.5H69c-34,0-61.5,27.6-61.5,61.5s27.6,61.5,61.5,61.5h192.6c33.8,62.4,111.7,85.5,174,51.8,62.4-33.8,85.5-111.7,51.8-174-22.5-41.5-65.9-67.3-113.1-67.3h0Z"/>
          <path id="Path_155" d="M1010.2,841.4h-441.3c17.3,39.2,17.3,83.8,0,123h441.3c34,0,61.5-27.5,61.5-61.5s-27.5-61.5-61.5-61.5Z"/>
        </g>
      </g>
    </g>
  </g>
</svg>