<?xml version="1.0" encoding="UTF-8"?>
<svg fill="white" width="1200pt" height="1200pt" version="1.1" viewBox="0 0 1200 1200" xmlns="http://www.w3.org/2000/svg">
 <g>
  <path d="m682.84 146.62h30.547c17.707 0 32.027 14.215 32.027 32v165.97c0 17.773-14.32 32.027-32.027 32.027h-30.547c-17.707 0-31.945-14.238-31.945-32.027v-165.97c-0.015625-17.785 14.238-32 31.945-32zm-311.53-32.504c-15.215 0-26.535 6.5352-26.535 24.441v240.84c0 23.199 18.148 41.254 41.281 41.254h386.17c23.121 0 41.172-18.055 41.172-41.254v-239.38c0-23.691-13.801-25.922-52.625-25.922h-389.46z"/>
  <path d="m1061.6 347.59-167.56-180.89c-23.078-24.93-27.398-15.973-27.398 9.8555v215.56c0 43.133-36.402 87.895-79.535 87.895h-423.67c-43.133 0-83.465-44.762-83.465-87.895v-274.52c-160 18.055-173.33 109.11-173.33 197.57v663.4c0 59.59 54.559 101.44 114.21 101.44h756.83c59.586 0 102.29-41.852 102.29-101.44v-580.81c0-24.387 0.66797-31.105-18.375-50.16zm-168.29 552.63c0 33.023-26.773 59.785-59.785 59.785h-467.09c-33.012 0-59.785-26.762-59.785-59.785v-133.76c0-33.027 26.773-59.785 59.785-59.785h467.08c33.027 0 59.801 26.758 59.801 59.785z"/>
 </g>
</svg>
