<?xml version="1.0" encoding="UTF-8"?>
<svg width="1200pt" height="1200pt" version="1.1" viewBox="0 0 1200 1200" xmlns="http://www.w3.org/2000/svg">
 <path d="m1064.4 778.8-303.6-175.2 303.6-175.2c37.199-21.602 50.398-69.602 28.801-108-21.602-37.199-69.602-50.398-108-28.801l-303.6 175.2v-357.6c0-43.199-34.801-79.199-79.199-79.199-43.199 0-79.199 34.801-79.199 79.199v357.6l-309.6-178.8c-37.199-21.602-86.398-8.3984-108 28.801-21.602 37.199-8.3984 86.398 28.801 108l309.6 178.8-308.4 178.8c-37.199 21.602-50.398 69.602-28.801 108 14.398 25.199 40.801 39.602 68.398 39.602 13.199 0 26.398-3.6016 39.602-10.801l309.6-178.8v351.6c0 43.199 34.801 79.199 79.199 79.199 43.199 0 79.199-34.801 79.199-79.199v-351.6l303.6 175.2c12 7.1992 26.398 10.801 39.602 10.801 27.602 0 54-14.398 68.398-39.602 20.398-37.195 8.3984-86.398-30.004-108z"/>
</svg>
